<svg width="48" height="40" viewBox="0 0 48 40" fill="none" xmlns="http://www.w3.org/2000/svg">
<path fill-rule="evenodd" clip-rule="evenodd" d="M4.28859 8.6406V29.6253C4.28834 29.7271 4.30814 29.828 4.34687 29.9221C4.3856 30.0163 4.44251 30.1019 4.51434 30.1741C4.58616 30.2462 4.6715 30.3035 4.76547 30.3427C4.85945 30.3818 4.96022 30.4021 5.06203 30.4023C5.14565 30.4028 5.22875 30.3892 5.30784 30.3621C9.04397 29.2302 12.397 29.0761 15.3448 29.699C18.5129 30.3688 21.2269 31.9362 23.4527 34.1599C23.598 34.3047 23.7948 34.3859 23.9999 34.3859C24.205 34.3859 24.4018 34.3047 24.5471 34.1599C26.7728 31.9362 29.4869 30.3688 32.655 29.699C35.6081 29.0761 38.9693 29.2369 42.7133 30.3688C42.9096 30.4276 43.1212 30.4063 43.3018 30.3097C43.4825 30.2131 43.6177 30.0491 43.6778 29.8532C43.6994 29.7792 43.7105 29.7025 43.7107 29.6254V8.6406H47.9994V36.4171C46.99 36.0688 45.9606 35.7004 44.9531 35.339C36.4582 32.2981 29.4735 29.7998 24 34.6692C18.5258 29.7998 11.5418 32.2981 3.04688 35.339C2.03953 35.7007 1.01072 36.0691 0 36.4171V8.6406H4.28859ZM23.2252 31.3531V8.31875H23.3598C21.1515 6.14225 18.4683 4.60176 15.3443 3.94532C12.5378 3.35591 9.36028 3.46972 5.8365 4.45438V28.6005C9.44269 27.6562 12.7261 27.5693 15.6591 28.1853C18.4442 28.7727 21.0424 30.0354 23.2252 31.8625V31.3531ZM42.1627 28.6003V4.45438C38.6389 3.47001 35.4614 3.35591 32.6549 3.94532C29.531 4.60157 26.8478 6.14226 24.6393 8.31904H24.7746V31.8625C26.9572 30.0355 29.5552 28.7728 32.3402 28.1853C35.2728 27.5691 38.5562 27.6562 42.1623 28.6005L42.1627 28.6003Z" fill="#464EE7"/>
<path fill-rule="evenodd" clip-rule="evenodd" d="M23.2253 31.3531V8.31875H23.3599C21.1516 6.14225 18.4684 4.60176 15.3445 3.94532C12.538 3.35591 9.36043 3.46972 5.83665 4.45438V28.6005C9.44284 27.6562 12.7262 27.5693 15.6592 28.1853C18.4444 28.7727 21.0426 30.0354 23.2253 31.8625V31.3531ZM42.1628 28.6003V4.45438C38.639 3.47001 35.4616 3.35591 32.6551 3.94532C29.5311 4.60157 26.8479 6.14226 24.6394 8.31904H24.7747V31.8625C26.9573 30.0355 29.5553 28.7728 32.3403 28.1853C35.2729 27.5691 38.5567 27.6559 42.1628 28.6003Z" fill="#EBE6FC"/>
</svg>
