<svg width="32" height="32" viewBox="0 0 32 32" fill="none" xmlns="http://www.w3.org/2000/svg">
<path d="M14.8537 31.9999C14.8537 27.2068 6.8312 19.1844 2.03809 19.1844C6.8312 19.1844 14.8537 11.1619 14.8537 6.36877C14.8537 11.1619 22.8761 19.1844 27.6692 19.1844C22.8761 19.1844 14.8537 27.2068 14.8537 31.9999Z" fill="#CBC0F6"/>
<path d="M14.8534 24.2321C14.8534 22.3448 11.693 19.1843 9.80566 19.1843C11.693 19.1843 14.8534 16.0239 14.8534 14.1366C14.8534 16.0239 18.0139 19.1843 19.9012 19.1843C18.0129 19.1843 14.8534 22.3438 14.8534 24.2321Z" fill="#464EE7"/>
<path d="M23.7884 14.1367C23.7884 11.828 19.9239 7.96353 17.6152 7.96353C19.9239 7.96353 23.7884 4.09909 23.7884 1.79041C23.7884 4.09909 27.6528 7.96353 29.9615 7.96353C27.6528 7.96353 23.7884 11.828 23.7884 14.1367Z" fill="#CBC0F6"/>
<path d="M5.80248 31.5396C5.80248 30.3504 3.81234 28.3602 2.62305 28.3602C3.81234 28.3602 5.80248 26.3701 5.80248 25.1808C5.80248 26.3701 7.79262 28.3602 8.98191 28.3602C7.79262 28.3612 5.80248 30.3514 5.80248 31.5396Z" fill="#CBC0F6"/>
<path d="M9.90387 8.82531C9.90387 7.17469 7.14184 4.41266 5.49121 4.41266C7.14184 4.41266 9.90387 1.65063 9.90387 0C9.90387 1.65063 12.6659 4.41266 14.3165 4.41266C12.6659 4.41266 9.90387 7.17469 9.90387 8.82531Z" fill="#CBC0F6"/>
</svg>
